<svg xmlns="http://www.w3.org/2000/svg" viewBox="0 0 128 128" role="img" aria-label="Snake Area logo">
  <defs>
    <linearGradient id="tile" x1="18" y1="12" x2="112" y2="118" gradientUnits="userSpaceOnUse">
      <stop stop-color="#b8ff5d"/>
      <stop offset="0.52" stop-color="#4ff3ff"/>
      <stop offset="1" stop-color="#0f766e"/>
    </linearGradient>
    <filter id="glow" x="-40%" y="-40%" width="180%" height="180%">
      <feGaussianBlur stdDeviation="5" result="blur"/>
      <feColorMatrix in="blur" type="matrix" values="0 0 0 0 0.31 0 0 0 0 0.95 0 0 0 0 1 0 0 0 .72 0"/>
      <feBlend in="SourceGraphic"/>
    </filter>
  </defs>
  <rect x="8" y="8" width="112" height="112" rx="28" fill="#07110f"/>
  <rect x="14" y="14" width="100" height="100" rx="24" fill="url(#tile)"/>
  <path d="M82 31c-13-6-37-2-37 13 0 24 43 11 43 35 0 16-25 20-43 10" fill="none" stroke="#07110f" stroke-width="15" stroke-linecap="round" stroke-linejoin="round" filter="url(#glow)"/>
  <path d="M84 31c-8-4-21-5-30-1" fill="none" stroke="#eaffd6" stroke-width="5" stroke-linecap="round" opacity=".8"/>
  <circle cx="88" cy="30" r="8" fill="#07110f"/>
  <circle cx="91" cy="27" r="2.2" fill="#b8ff5d"/>
  <path d="M95 32l10-4M95 34l10 3" stroke="#07110f" stroke-width="3" stroke-linecap="round"/>
</svg>